<svg xmlns="http://www.w3.org/2000/svg" version="1.1" xmlns:xlink="http://www.w3.org/1999/xlink" width="1000" height="1000"><metadata><rdf:RDF xmlns:rdf="http://www.w3.org/1999/02/22-rdf-syntax-ns#" xmlns:dc="http://purl.org/dc/elements/1.1/"><rdf:Description><dc:creator>RealFaviconGenerator</dc:creator><dc:source>https://realfavicongenerator.net</dc:source></rdf:Description></rdf:RDF></metadata><g clip-path="url(#SvgjsClipPath1141)"><rect width="1000" height="1000" fill="#ffffff"></rect><g transform="matrix(0.9,0,0,0.9,50,50)"><svg xmlns="http://www.w3.org/2000/svg" version="1.1" xmlns:xlink="http://www.w3.org/1999/xlink" width="1000" height="1000"><metadata><rdf:rdf xmlns:rdf="http://www.w3.org/1999/02/22-rdf-syntax-ns#" xmlns:dc="http://purl.org/dc/elements/1.1/"><rdf:description><dc:creator>RealFaviconGenerator</dc:creator><dc:source>https://realfavicongenerator.net</dc:source></rdf:description></rdf:rdf></metadata><g clip-path="url(#SvgjsClipPath1154)"><rect width="1000" height="1000" fill="#ffffff"></rect><g transform="matrix(3.5,0,0,3.5,150,150)"><svg xmlns="http://www.w3.org/2000/svg" version="1.1" xmlns:xlink="http://www.w3.org/1999/xlink" viewBox="0 0 200 200" width="200" height="200"><rect width="200" height="200" fill="url('#gradient')"></rect><defs><linearGradient id="gradient" gradientTransform="rotate(45 0.5 0.5)"><stop offset="0%" stop-color="#ffffff"></stop><stop offset="100%" stop-color="#ffffff"></stop></linearGradient><clipPath id="SvgjsClipPath1154"><rect width="1000" height="1000" x="0" y="0" rx="150" ry="150"></rect></clipPath><clipPath id="SvgjsClipPath1141"><rect width="1000" height="1000" x="0" y="0" rx="100" ry="100"></rect></clipPath></defs><g><g fill="#000000" transform="matrix(14.065934065934066,0,0,14.065934065934066,21.15996744606521,200.0081679532816)" stroke="#ffffff" stroke-width="0.2"><path d="M5-14.22L5-8.93L6.89-9.44L6.89-7.71L5-7.19L5-2.64L10.97-2.64L10.97 0L1.57 0L1.57-6.24L0.24-5.88L0.24-7.62L1.57-7.98L1.57-14.22L5-14.22Z"></path></g></g></svg></g></g></svg></g></g></svg>